<svg xmlns="http://www.w3.org/2000/svg" fill="none" viewBox="0 0 558 106">
    <g fill="#FFF" clip-path="url(#a)">
        <path d="M254.772 0h12.202c2.284 0 3.8 2.393 2.814 4.458L249.566 46.88a3.113 3.113 0 0 1-2.813 1.772h-17.408a3.123 3.123 0 0 1-2.886-1.937L217.8 25.468c-1.023-2.503-4.53-2.613-5.699-.165L201.817 46.88a3.113 3.113 0 0 1-2.813 1.772h-12.166c-2.283 0-3.799-2.394-2.813-4.458l20.24-42.422A3.113 3.113 0 0 1 207.078 0h22.084c1.316 0 2.485.822 2.941 2.064l5.937 16.644c.932 2.613 4.548 2.795 5.736.292l8.201-17.228A3.116 3.116 0 0 1 254.791 0h-.019ZM300.859.073h18.468a3.117 3.117 0 0 1 3.105 2.923l2.649 42.422a3.118 3.118 0 0 1-3.106 3.307h-14.997a3.103 3.103 0 0 1-3.105-3.16v-2.01c.055-1.736-1.352-3.16-3.087-3.16h-19.984c-.859 0-1.681.346-2.265.986l-5.973 6.358a3.126 3.126 0 0 1-2.265.986h-12.531c-2.777 0-4.165-3.38-2.192-5.335L298.667.968a3.157 3.157 0 0 1 2.192-.895Zm-2.996 28.446h3.124a3.11 3.11 0 0 0 3.105-3.088l.037-3.343c.036-2.832-3.435-4.239-5.371-2.174l-3.16 3.343c-1.881 1.992-.475 5.244 2.265 5.244v.018ZM425.548.073h12.951c2.703 0 4.128 3.216 2.302 5.225L401.856 47.72a3.124 3.124 0 0 1-2.302 1.005H381.47c-1.753 0-3.178-1.462-3.105-3.215l.456-12.68c.11-2.886-3.452-4.348-5.406-2.21l-15.71 17.1a3.122 3.122 0 0 1-2.301 1.005h-18.085c-1.753 0-3.178-1.462-3.105-3.215l1.498-42.422a3.105 3.105 0 0 1 3.105-2.996h14.997a3.112 3.112 0 0 1 3.087 3.452l-1.881 17.229c-.329 3.05 3.489 4.695 5.48 2.356l18.541-21.96a3.11 3.11 0 0 1 2.374-1.096h16.55a3.112 3.112 0 0 1 3.087 3.453l-1.881 17.228c-.329 3.051 3.489 4.696 5.48 2.357l18.522-21.923a3.113 3.113 0 0 1 2.375-1.096V.073ZM460.437.073h18.468a3.117 3.117 0 0 1 3.105 2.923l2.649 42.422a3.117 3.117 0 0 1-3.105 3.307h-14.997a3.104 3.104 0 0 1-3.106-3.16v-2.01c.055-1.736-1.351-3.16-3.087-3.16h-19.983c-.859 0-1.681.346-2.266.986l-5.973 6.358a3.122 3.122 0 0 1-2.265.986h-12.531c-2.776 0-4.165-3.38-2.192-5.335L458.245.968a3.16 3.16 0 0 1 2.192-.895Zm-2.995 28.446h3.123a3.112 3.112 0 0 0 3.106-3.088l.036-3.343c.037-2.832-3.434-4.239-5.37-2.174l-3.16 3.343c-1.882 1.992-.475 5.244 2.265 5.244v.018ZM497.007 44.267l11.6-24.317c.986-2.064-.53-4.457-2.813-4.457h-12.805c-2.284 0-3.8-2.394-2.813-4.458l4.384-9.19a3.113 3.113 0 0 1 2.813-1.772h57.522c2.283 0 3.799 2.394 2.813 4.458l-4.384 9.19a3.116 3.116 0 0 1-2.813 1.772h-18.742a3.113 3.113 0 0 0-2.813 1.772l-14.157 29.688a3.113 3.113 0 0 1-2.813 1.772H499.82c-2.283 0-3.799-2.393-2.813-4.458ZM202.127 78.102h29.739c1.15 0 1.918 1.206 1.424 2.248l-11.654 24.444a2.138 2.138 0 0 1-1.936 1.224h-5.17a2.133 2.133 0 0 1-2.009-2.85l.219-.621c.475-1.352-.95-2.594-2.21-1.918-7.398 3.928-15.454 5.389-22.559 5.389-18.377-.073-30.926-5.353-22.085-23.75l1.699-3.544c8.713-18.434 26.304-23.714 44.735-23.75 16.532 0 28.131 4.366 24.094 18.451a1.584 1.584 0 0 1-1.516 1.133h-18.029a1.613 1.613 0 0 1-1.425-.877c-.585-1.15-1.699-1.936-3.307-2.411-1.972-.585-4.384-.877-7.197-.877-7.873.11-15.198 1.553-18.851 9.482l-.566 1.187c-3.927 8.002 2.046 9.372 9.809 9.482 4.457 0 8.019-.146 11.161-1.041 1.754-.494 1.407-3.088-.42-3.088h-6.412c-1.15 0-1.918-1.206-1.424-2.247l2.466-5.189a1.576 1.576 0 0 1 1.424-.895v.018ZM273.751 56.234h18.468a3.117 3.117 0 0 1 3.105 2.923l2.649 42.422a3.118 3.118 0 0 1-3.106 3.307H279.87a3.104 3.104 0 0 1-3.105-3.161v-2.01c.055-1.735-1.352-3.16-3.087-3.16h-19.984c-.858 0-1.68.347-2.265.986l-5.991 6.358a3.127 3.127 0 0 1-2.265.987h-12.531c-2.777 0-4.165-3.38-2.192-5.335l43.109-42.422a3.159 3.159 0 0 1 2.192-.895Zm-2.977 28.446h3.123a3.112 3.112 0 0 0 3.106-3.088l.036-3.343c.037-2.832-3.434-4.239-5.37-2.174l-3.16 3.343c-1.882 1.991-.475 5.243 2.265 5.243v.019ZM324.843 56.16h19.6a3.12 3.12 0 0 1 2.978 2.193l5.462 17.776c.639 2.102 3.196 2.887 4.913 1.535l26.286-20.827a3.083 3.083 0 0 1 1.936-.676h17.829c2.283 0 3.799 2.393 2.813 4.458l-20.221 42.422a3.117 3.117 0 0 1-2.814 1.772H371.46c-2.284 0-3.8-2.394-2.813-4.458l4.201-8.824c1.425-3.015-2.228-5.865-4.786-3.746L348.279 104.1a3.148 3.148 0 0 1-1.973.713h-6.009a3.104 3.104 0 0 1-3.014-2.339l-3.982-15.346c-.731-2.814-4.567-3.18-5.828-.567l-7.854 16.461a3.115 3.115 0 0 1-2.813 1.772H304.64c-2.283 0-3.799-2.393-2.813-4.457l20.221-42.422a3.116 3.116 0 0 1 2.813-1.772l-.018.018ZM421.803 56.234h50.343c2.284 0 3.8 2.393 2.813 4.458L472 66.922a3.113 3.113 0 0 1-2.813 1.772h-34.25a3.113 3.113 0 0 0-2.813 1.772c-.987 2.064.529 4.458 2.813 4.458h28.313c2.284 0 3.8 2.393 2.813 4.457l-2.393 5.025a3.113 3.113 0 0 1-2.813 1.772h-34.25a3.116 3.116 0 0 0-2.813 1.772c-.986 2.064.53 4.458 2.813 4.458h28.314c2.283 0 3.799 2.393 2.813 4.457l-2.978 6.267a3.113 3.113 0 0 1-2.813 1.772H401.6c-2.283 0-3.799-2.393-2.813-4.458l20.221-42.422a3.116 3.116 0 0 1 2.813-1.772l-.018-.018ZM506.853 74.978c13.316.695 32.04 1.626 26.194 13.83-6.63 13.903-24.203 17.192-41.392 17.192-16.203-.037-28.935-1.882-25.701-14.871a3.11 3.11 0 0 1 3.014-2.339h15.362c1.133 0 2.247.566 2.795 1.571 1.37 2.485 5.443 3.18 10.467 3.18 5.936 0 13.681-.97 15.472-4.751 1.022-2.138-4.75-2.466-12.257-2.832-13.317-.694-32.04-1.626-26.213-13.793 6.631-13.903 24.221-17.229 41.41-17.229 16.167.11 28.972 1.828 25.684 14.908a3.095 3.095 0 0 1-3.014 2.32h-15.436c-1.151 0-2.174-.657-2.74-1.644-1.388-2.466-5.462-3.087-10.448-3.087-5.937 0-13.627.877-15.472 4.75-1.023 2.137 4.767 2.43 12.275 2.795Z"/>
    </g>
    <g clip-path="url(#b)">
        <path fill="#FFF" d="M142.879 30.716c-.574-.6-1.953-2.056-3.588-1.88-1.817.192-3.204 2.273-3.587 4-.247 1.105-.024 1.761.255 3.417.447 2.689.55 5.105.51 6.241-.095 3.265-1.57 5.697-2.822 7.77-1.251 2.064-2.304 3.096-3.244 3.976a37.29 37.29 0 0 0-1.212-2.208c3.149-3.977 3.404-14.378 3.237-18.731-.152-3.753-.877-9.53-3.715-15.739-2.272-4.96-4.839-7.889-7.821-11.281C115.535.16 113.184-.01 112.307 0c-2.448.032-5.158 1.648-5.381 3.48-.152 1.249.909 1.993 3.587 5.57 1.076 1.44 1.993 2.704 2.822 4.04 1.73 2.792 2.599 5.24 3.205 6.96.717 2.041 1.945 5.554 2.176 9.61.287 4.937-1.092 7.265-1.794 9.714a53.136 53.136 0 0 0-2.431-1.593 31.568 31.568 0 0 0-.494-2.232c-.965-3.8-2.145-6.56-2.432-7.24-2.112-4.89-3.252-7.434-6.026-9.45-1.053-.769-2.814-2.049-4.361-1.473-1.554.576-2.2 2.785-2.049 4.417.152 1.64 1.061 2.104 2.049 4.049 1.188 2.328 1.339 4.48 1.395 6.217-8.418-3.057-18.08-4.801-28.347-4.801-10.268 0-20.24 1.8-28.763 4.96.056-1.752.176-3.968 1.403-6.368.997-1.945 1.898-2.409 2.049-4.049.151-1.632-.494-3.84-2.049-4.417-1.538-.576-3.308.705-4.36 1.473-2.775 2.016-3.914 4.568-6.027 9.45-.295.68-1.475 3.44-2.431 7.24a30.752 30.752 0 0 0-.543 2.52 52.834 52.834 0 0 0-2.311 1.545c-.678-2.545-2.16-4.865-1.866-9.954.24-4.048 1.467-7.569 2.177-9.61.605-1.72 1.474-4.168 3.204-6.96.83-1.336 1.746-2.6 2.822-4.04 2.679-3.577 3.739-4.33 3.588-5.57C40.903 1.648 38.193.032 35.746 0c-.877-.016-3.229.16-8.586 6.265-2.974 3.392-5.548 6.32-7.82 11.281-2.846 6.201-3.572 11.986-3.715 15.739-.176 4.457.103 15.266 3.475 19.01a31.077 31.077 0 0 0-1.514 2.881c-1.196-1.192-2.535-2.096-4.241-4.92-1.252-2.065-2.719-4.505-2.822-7.77-.032-1.128.064-3.544.51-6.24.279-1.657.502-2.313.255-3.417-.39-1.729-1.778-3.809-3.587-4-1.634-.177-3.022 1.28-3.588 1.88-3.794 4-6.624 15.826-.765 28.596 2.527 5.505 8.434 15.05 12.612 14.25 4.926 18.435 29.129 32.437 58.265 32.437 29.137 0 53.435-14.058 58.29-32.55 3.994-1.215 8.889-9.264 11.121-14.137 5.851-12.77 3.029-24.596-.765-28.597l.008.008Zm-80.922 52.32c-.223 1.032-2.017 1.424-5.604 2.2-3.675.8-6.513 1.417-9.575.097-.645-.28-2.327-1.025-3.786-2.673-1.483-1.672-1.252-2.6-2.758-3.888-.598-.512-.821-.528-3.875-1.969-3.372-1.592-3.571-1.792-3.547-1.968.096-.76 4.408-.936 7.66-.8 2.807.12 6.434.304 10.89 1.872 4.321 1.52 11.081 4.929 10.603 7.13h-.008Zm49.744-6.233c-3.053 1.44-3.284 1.457-3.874 1.969-1.507 1.288-1.276 2.216-2.759 3.888-1.458 1.648-3.141 2.393-3.786 2.673-3.07 1.32-5.9.704-9.574-.096-3.588-.784-5.381-1.168-5.605-2.2-.478-2.201 6.282-5.61 10.603-7.13 4.456-1.568 8.083-1.752 10.889-1.872 3.253-.144 7.566.032 7.661.8.024.176-.175.376-3.547 1.968h-.008Z"/>
    </g>
    <defs>
        <clipPath id="a">
            <path fill="#fff" d="M0 0h395v106H0z" transform="translate(163)"/>
        </clipPath>
        <clipPath id="b">
            <path fill="#fff" d="M0 0h147v106H0z"/>
        </clipPath>
    </defs>
</svg>
