<svg xmlns="http://www.w3.org/2000/svg" id="nawat-logotype" viewBox="0 0 216.24 58.02">
  <defs/>
  <g id="nawat-logotype">
    <path d="M50.24 0h6.68c1.25 0 2.08 1.31 1.54 2.44L47.39 25.66c-.28.59-.88.97-1.54.97h-9.53c-.69 0-1.32-.42-1.58-1.06L30 13.94c-.56-1.37-2.48-1.43-3.12-.09l-5.63 11.81c-.28.59-.88.97-1.54.97h-6.66c-1.25 0-2.08-1.31-1.54-2.44L22.59.97c.28-.59.88-.97 1.54-.97h12.09c.72 0 1.36.45 1.61 1.13l3.25 9.11c.51 1.43 2.49 1.53 3.14.16L48.71.97c.28-.59.88-.97 1.54-.97ZM75.47.04h10.11c.9 0 1.64.7 1.7 1.6l1.45 23.22c.06.98-.72 1.81-1.7 1.81h-8.21c-.95 0-1.72-.78-1.7-1.73v-1.1c.03-.95-.74-1.73-1.69-1.73H64.49c-.47 0-.92.19-1.24.54l-3.27 3.48c-.32.34-.77.54-1.24.54h-6.86c-1.52 0-2.28-1.85-1.2-2.92L74.27.53c.32-.31.75-.49 1.2-.49Zm-1.64 15.57h1.71c.93 0 1.69-.75 1.7-1.69l.02-1.83c.02-1.55-1.88-2.32-2.94-1.19l-1.73 1.83c-1.03 1.09-.26 2.87 1.24 2.87ZM143.73.04h7.09c1.48 0 2.26 1.76 1.26 2.86l-21.32 23.22c-.32.35-.78.55-1.26.55h-9.9a1.7 1.7 0 0 1-1.7-1.76l.25-6.94c.06-1.58-1.89-2.38-2.96-1.21l-8.6 9.36c-.32.35-.78.55-1.26.55h-9.9a1.7 1.7 0 0 1-1.7-1.76l.82-23.22a1.7 1.7 0 0 1 1.7-1.64h8.21c1.01 0 1.8.88 1.69 1.89l-1.03 9.43c-.18 1.67 1.91 2.57 3 1.29L118.27.64c.32-.38.8-.6 1.3-.6h9.06c1.01 0 1.8.88 1.69 1.89l-1.03 9.43c-.18 1.67 1.91 2.57 3 1.29l10.14-12c.32-.38.8-.6 1.3-.6ZM162.83.04h10.11c.9 0 1.64.7 1.7 1.6l1.45 23.22c.06.98-.72 1.81-1.7 1.81h-8.21c-.95 0-1.72-.78-1.7-1.73v-1.1c.03-.95-.74-1.73-1.69-1.73h-10.94c-.47 0-.92.19-1.24.54l-3.27 3.48c-.32.34-.77.54-1.24.54h-6.86c-1.52 0-2.28-1.85-1.2-2.92L161.63.53c.32-.31.75-.49 1.2-.49Zm-1.64 15.57h1.71c.93 0 1.69-.75 1.7-1.69l.02-1.83c.02-1.55-1.88-2.32-2.94-1.19l-1.73 1.83c-1.03 1.09-.26 2.87 1.24 2.87ZM182.85 24.23l6.35-13.31c.54-1.13-.29-2.44-1.54-2.44h-7.01c-1.25 0-2.08-1.31-1.54-2.44l2.4-5.03c.28-.59.88-.97 1.54-.97h31.49c1.25 0 2.08 1.31 1.54 2.44l-2.4 5.03c-.28.59-.88.97-1.54.97h-10.26c-.66 0-1.26.38-1.54.97l-7.75 16.25c-.28.59-.88.97-1.54.97h-6.66c-1.25 0-2.08-1.31-1.54-2.44ZM21.42 42.75H37.7c.63 0 1.05.66.78 1.23L32.1 57.36c-.19.41-.61.67-1.06.67h-2.83c-.81 0-1.37-.8-1.1-1.56l.12-.34c.26-.74-.52-1.42-1.21-1.05-4.05 2.15-8.46 2.95-12.35 2.95-10.06-.04-16.93-2.93-12.09-13l.93-1.94C7.28 33 16.91 30.11 27 30.09c9.05 0 15.4 2.39 13.19 10.1-.11.37-.45.62-.83.62h-9.87c-.33 0-.63-.19-.78-.48-.32-.63-.93-1.06-1.81-1.32-1.08-.32-2.4-.48-3.94-.48-4.31.06-8.32.85-10.32 5.19l-.31.65c-2.15 4.38 1.12 5.13 5.37 5.19 2.44 0 4.39-.08 6.11-.57.96-.27.77-1.69-.23-1.69h-3.51a.863.863 0 0 1-.78-1.23l1.35-2.84c.14-.3.45-.49.78-.49ZM60.63 30.78h10.11c.9 0 1.64.7 1.7 1.6l1.45 23.22c.06.98-.72 1.81-1.7 1.81h-8.21c-.95 0-1.72-.78-1.7-1.73v-1.1c.03-.95-.74-1.73-1.69-1.73H49.65c-.47 0-.92.19-1.24.54l-3.28 3.48c-.32.34-.77.54-1.24.54h-6.86c-1.52 0-2.28-1.85-1.2-2.92l23.6-23.22c.32-.31.75-.49 1.2-.49ZM59 46.35h1.71c.93 0 1.69-.75 1.7-1.69l.02-1.83c.02-1.55-1.88-2.32-2.94-1.19l-1.73 1.83c-1.03 1.09-.26 2.87 1.24 2.87ZM88.6 30.74h10.73c.75 0 1.41.49 1.63 1.2l2.99 9.73c.35 1.15 1.75 1.58 2.69.84l14.39-11.4c.3-.24.67-.37 1.06-.37h9.76c1.25 0 2.08 1.31 1.54 2.44L122.32 56.4c-.28.59-.88.97-1.54.97h-6.66c-1.25 0-2.08-1.31-1.54-2.44l2.3-4.83c.78-1.65-1.22-3.21-2.62-2.05l-10.83 8.93c-.31.25-.69.39-1.08.39h-3.29a1.7 1.7 0 0 1-1.65-1.28l-2.18-8.4c-.4-1.54-2.5-1.74-3.19-.31l-4.3 9.01c-.28.59-.88.97-1.54.97h-6.66c-1.25 0-2.08-1.31-1.54-2.44L87.07 31.7c.28-.59.88-.97 1.54-.97ZM141.68 30.78h27.56c1.25 0 2.08 1.31 1.54 2.44l-1.62 3.41c-.28.59-.88.97-1.54.97h-18.75c-.66 0-1.26.38-1.54.97-.54 1.13.29 2.44 1.54 2.44h15.5c1.25 0 2.08 1.31 1.54 2.44l-1.31 2.75c-.28.59-.88.97-1.54.97h-18.75c-.66 0-1.26.38-1.54.97-.54 1.13.29 2.44 1.54 2.44h15.5c1.25 0 2.08 1.31 1.54 2.44l-1.63 3.43c-.28.59-.88.97-1.54.97h-27.56c-1.25 0-2.08-1.31-1.54-2.44l11.07-23.22c.28-.59.88-.97 1.54-.97ZM188.24 41.04c7.29.38 17.54.89 14.34 7.57-3.63 7.61-13.25 9.41-22.66 9.41-8.87-.02-15.84-1.03-14.07-8.14.19-.75.87-1.28 1.65-1.28h8.41c.62 0 1.23.31 1.53.86.75 1.36 2.98 1.74 5.73 1.74 3.25 0 7.49-.53 8.47-2.6.56-1.17-2.6-1.35-6.71-1.55-7.29-.38-17.54-.89-14.35-7.55 3.63-7.61 13.26-9.43 22.67-9.43 8.85.06 15.86 1 14.06 8.16-.19.75-.87 1.27-1.65 1.27h-8.45c-.63 0-1.19-.36-1.5-.9-.76-1.35-2.99-1.69-5.72-1.69-3.25 0-7.46.48-8.47 2.6-.56 1.17 2.61 1.33 6.72 1.53Z" class="cls-1"/>
  </g>
</svg>
